<?xml version="1.0" encoding="UTF-8" standalone="no"?>
<!-- Created with Inkscape (http://www.inkscape.org/) -->

<svg
   width="1000"
   height="1000"
   viewBox="0 0 264.58334 264.58333"
   version="1.1"
   id="svg1"
   xml:space="preserve"
   inkscape:export-filename="iclouded.png"
   inkscape:export-xdpi="96"
   inkscape:export-ydpi="96"
   inkscape:version="1.3.2 (091e20ef0f, 2023-11-25, custom)"
   sodipodi:docname="iclouded-inkscape.svg"
   xmlns:inkscape="http://www.inkscape.org/namespaces/inkscape"
   xmlns:sodipodi="http://sodipodi.sourceforge.net/DTD/sodipodi-0.dtd"
   xmlns:xlink="http://www.w3.org/1999/xlink"
   xmlns="http://www.w3.org/2000/svg"
   xmlns:svg="http://www.w3.org/2000/svg"><sodipodi:namedview
     id="namedview1"
     pagecolor="#ffffff"
     bordercolor="#000000"
     borderopacity="0.25"
     inkscape:showpageshadow="2"
     inkscape:pageopacity="0.0"
     inkscape:pagecheckerboard="0"
     inkscape:deskcolor="#d1d1d1"
     inkscape:document-units="mm"
     inkscape:zoom="1.0280428"
     inkscape:cx="447.93855"
     inkscape:cy="563.20613"
     inkscape:window-width="1920"
     inkscape:window-height="1020"
     inkscape:window-x="0"
     inkscape:window-y="0"
     inkscape:window-maximized="1"
     inkscape:current-layer="layer1" /><defs
     id="defs1"><linearGradient
       id="linearGradient3"
       inkscape:collect="always"><stop
         style="stop-color:#585ad7;stop-opacity:1;"
         offset="0"
         id="stop3" /><stop
         style="stop-color:#5ac3fa;stop-opacity:1;"
         offset="1"
         id="stop4" /></linearGradient><linearGradient
       inkscape:collect="always"
       xlink:href="#linearGradient3"
       id="linearGradient4"
       x1="20.090455"
       y1="136.11861"
       x2="244.65578"
       y2="136.11861"
       gradientUnits="userSpaceOnUse" /></defs><g
     inkscape:label="Layer 1"
     inkscape:groupmode="layer"
     id="layer1"><g
       id="g4"
       transform="translate(-0.08145098,-3.826941)"><path
         style="fill:url(#linearGradient4);fill-opacity:1"
         d="m 50.257789,213.48298 c -1.582206,-0.27849 -4.320644,-0.98888 -6.085417,-1.57865 -1.764772,-0.58977 -4.247477,-1.59132 -5.517122,-2.22567 -1.269644,-0.63434 -3.174644,-1.72651 -4.233333,-2.42705 -1.058689,-0.70053 -3.078341,-2.38934 -4.488116,-3.7529 -1.409775,-1.36356 -3.150956,-3.33162 -3.869293,-4.37345 -0.718336,-1.04183 -1.782878,-2.84674 -2.365648,-4.0109 -0.58277,-1.16417 -1.423745,-3.25569 -1.868835,-4.64782 -0.445089,-1.39214 -1.016099,-3.65433 -1.268912,-5.02709 -0.326189,-1.77119 -0.462769,-3.91721 -0.47037,-7.39072 -0.0075,-3.41295 0.131272,-5.81594 0.458285,-7.9375 0.257948,-1.67349 0.872449,-4.25375 1.365557,-5.73391 0.493108,-1.48017 1.273239,-3.4447 1.733625,-4.36563 0.460385,-0.92093 1.471485,-2.62692 2.246889,-3.79108 0.775403,-1.16417 2.235306,-3.05016 3.244227,-4.19108 1.008922,-1.14093 2.712927,-2.84853 3.786678,-3.79468 1.07375,-0.94615 2.785711,-2.34805 3.804357,-3.11533 1.018646,-0.76727 3.161771,-2.20616 4.7625,-3.19753 1.60073,-0.99137 4.815417,-2.72208 7.143751,-3.84603 2.328333,-1.12395 5.840677,-2.64218 7.805208,-3.37385 1.964532,-0.73166 4.910508,-1.73483 6.546615,-2.22925 1.636106,-0.49443 3.045293,-0.96951 3.131525,-1.05574 0.08623,-0.0862 -5.278528,-16.5496 -11.921691,-36.585256 -6.643163,-20.035658 -12.01126,-36.495687 -11.929105,-36.577842 0.08215,-0.08216 1.846096,-0.0048 3.919868,0.171942 2.073773,0.176724 5.437371,0.557559 7.474663,0.846301 2.037292,0.288743 6.062891,1.004256 8.945776,1.590031 2.882885,0.585774 7.347729,1.647699 9.921875,2.359834 2.574147,0.712135 6.406673,1.879883 8.516725,2.594996 2.110052,0.715114 5.247997,1.861062 6.973212,2.546552 1.725214,0.685489 4.582714,1.929913 6.35,2.765385 1.767286,0.835472 4.463403,2.206631 5.991377,3.04702 1.52796,0.840388 4.31405,2.545856 6.19129,3.789929 1.87724,1.244073 4.37756,3.039283 5.55625,3.989357 1.17869,0.950074 3.07377,2.570293 4.21127,3.600488 1.13751,1.030194 3.04239,2.987857 4.23307,4.350362 1.19068,1.362505 2.73426,3.258292 3.43018,4.21286 1.24777,1.71153 1.30277,1.749599 3.96902,2.747394 1.48704,0.556498 4.19199,1.756201 6.011,2.666006 1.81901,0.909801 4.8551,2.680001 6.74688,3.933781 1.89177,1.25377 4.62323,3.24016 6.06991,4.4142 2.63032,2.1346 2.63032,2.1346 3.57187,1.39835 0.51785,-0.40494 1.95358,-1.34086 3.19051,-2.07983 1.23692,-0.73897 3.32052,-1.77624 4.63021,-2.30505 1.30968,-0.52881 3.51234,-1.2447 4.89479,-1.59088 1.38245,-0.34618 3.46604,-0.7514 4.63021,-0.9005 1.16416,-0.1491 2.77915,-0.3405 3.58886,-0.42535 1.47219,-0.15426 1.47219,-0.15426 22.72916,-21.981266 11.69134,-12.004851 21.34289,-21.732408 21.44789,-21.616792 0.10501,0.115616 0.85216,2.353336 1.66035,4.972711 0.80818,2.619375 1.71085,5.595937 2.00592,6.614583 0.29508,1.018646 1.13093,4.256798 1.85745,7.195893 0.72653,2.939096 1.7981,7.761127 2.38128,10.715626 0.58318,2.954498 1.36349,7.468375 1.73403,10.030838 0.37055,2.562457 0.85113,6.670117 1.06796,9.128127 0.21683,2.458 0.39483,6.91061 0.39556,9.89468 7.7e-4,3.13141 -0.16537,6.85061 -0.39289,8.79571 -0.21683,1.85357 -0.63424,4.47221 -0.92758,5.81921 -0.29335,1.347 -0.83517,3.35701 -1.20405,4.46671 -0.36888,1.10969 -1.20105,3.07422 -1.84926,4.36562 -0.64822,1.2914 -1.06513,2.38601 -0.92647,2.43247 0.13865,0.0464 1.29893,0.73933 2.5784,1.53972 1.27947,0.8004 3.45364,2.31021 4.8315,3.35513 1.37786,1.04492 3.5828,2.97142 4.89987,4.2811 1.31708,1.30969 3.18298,3.43534 4.14645,4.72366 0.96348,1.28833 2.34918,3.49098 3.07933,4.89479 0.73016,1.40381 1.69135,3.59122 2.13599,4.86091 0.44463,1.26968 1.01284,3.35328 1.26267,4.63021 0.29708,1.51841 0.45424,3.60328 0.45424,6.02585 0,2.40828 -0.15731,4.50782 -0.44965,6.00134 -0.2473,1.26344 -0.75185,3.22295 -1.12121,4.35445 -0.36936,1.13151 -1.15391,3.01481 -1.74344,4.18512 -0.58953,1.17031 -1.62445,2.95666 -2.29983,3.96966 -0.67537,1.01299 -2.35904,3.02365 -3.74149,4.46811 -1.38245,1.44446 -3.4707,3.37412 -4.64055,4.28814 -1.16986,0.91401 -3.08352,2.25508 -4.25258,2.98015 -1.16905,0.72507 -3.22325,1.86961 -4.56487,2.54341 -1.34162,0.6738 -3.05937,1.47402 -3.81722,1.77827 -0.75785,0.30425 -2.54779,0.95537 -3.97765,1.44695 -2.59973,0.89378 -2.59973,0.89378 -81.75625,0.87241 -76.737422,-0.0207 -79.244427,-0.0368 -82.033251,-0.52772 z"
         id="path1"
         sodipodi:nodetypes="sssssssssssssssssssssssscssssssssssssssssssssssssssssssssssscssssssssssssssssssss" /><path
         style="display:inline;fill:#121246;fill-opacity:1"
         d="m 50.257789,213.48298 c -1.582206,-0.27849 -4.320644,-0.98888 -6.085417,-1.57865 -1.764772,-0.58977 -4.247477,-1.59132 -5.517122,-2.22567 -1.269644,-0.63434 -3.174644,-1.72651 -4.233333,-2.42705 -1.058689,-0.70053 -3.078341,-2.38934 -4.488116,-3.7529 -1.409775,-1.36356 -3.150956,-3.33162 -3.869293,-4.37345 -0.718336,-1.04183 -1.782878,-2.84674 -2.365648,-4.0109 -0.58277,-1.16417 -1.423745,-3.25569 -1.868835,-4.64782 -0.445089,-1.39214 -1.016099,-3.65433 -1.268912,-5.02709 -0.326189,-1.77119 -0.462769,-3.91721 -0.47037,-7.39072 -0.0075,-3.41295 0.131272,-5.81594 0.458285,-7.9375 0.257948,-1.67349 0.872449,-4.25375 1.365557,-5.73391 0.493108,-1.48017 1.273239,-3.4447 1.733625,-4.36563 0.460385,-0.92093 1.471485,-2.62692 2.246889,-3.79108 0.775403,-1.16417 2.235306,-3.05016 3.244227,-4.19108 1.008922,-1.14093 2.712927,-2.84853 3.786678,-3.79468 1.07375,-0.94615 2.785711,-2.34805 3.804357,-3.11533 1.018646,-0.76727 3.161771,-2.20616 4.7625,-3.19753 1.60073,-0.99137 4.815417,-2.72208 7.143751,-3.84603 2.328333,-1.12395 5.840677,-2.64218 7.805208,-3.37385 1.964532,-0.73166 4.910508,-1.73483 6.546615,-2.22925 1.636106,-0.49443 3.045293,-0.96951 3.131525,-1.05574 0.08623,-0.0862 -5.278528,-16.5496 -11.921691,-36.585256 -6.643163,-20.035658 -12.01126,-36.495687 -11.929105,-36.577842 0.08215,-0.08216 1.846096,-0.0048 3.919868,0.171942 2.073773,0.176724 5.437371,0.557559 7.474663,0.846301 2.037292,0.288743 6.062891,1.004256 8.945776,1.590031 2.882885,0.585774 7.347729,1.647699 9.921875,2.359834 2.574147,0.712135 6.406673,1.879883 8.516725,2.594996 2.110052,0.715114 5.247997,1.861062 6.973212,2.546552 1.725214,0.685489 4.582714,1.929913 6.35,2.765385 1.767286,0.835472 4.463403,2.206631 5.991377,3.04702 1.52796,0.840388 4.31405,2.545856 6.19129,3.789929 1.87724,1.244073 4.37756,3.039283 5.55625,3.989357 1.17869,0.950074 3.07377,2.570293 4.21127,3.600488 1.13751,1.030194 3.04239,2.987857 4.23307,4.350362 1.19068,1.362505 2.73426,3.258292 3.43018,4.21286 1.24777,1.71153 1.30277,1.749599 3.96902,2.747394 1.48704,0.556498 4.19199,1.756201 6.011,2.666006 1.81901,0.909801 4.8551,2.680001 6.74688,3.933781 1.89177,1.25377 4.62323,3.24016 6.06991,4.4142 2.63032,2.1346 2.63032,2.1346 3.57187,1.39835 0.51785,-0.40494 1.95358,-1.34086 3.19051,-2.07983 1.23692,-0.73897 3.32052,-1.77624 4.63021,-2.30505 1.30968,-0.52881 3.51234,-1.2447 4.89479,-1.59088 1.38245,-0.34618 3.46604,-0.7514 4.63021,-0.9005 1.16416,-0.1491 2.77915,-0.3405 3.58886,-0.42535 1.47219,-0.15426 1.47219,-0.15426 22.72916,-21.981266 11.69134,-12.004851 21.34289,-21.732408 21.44789,-21.616792 0.10501,0.115616 0.85216,2.353336 1.66035,4.972711 0.80818,2.619375 1.71085,5.595937 2.00592,6.614583 0.29508,1.018646 1.13093,4.256798 1.85745,7.195893 0.72653,2.939096 1.7981,7.761127 2.38128,10.715626 0.58318,2.954498 1.36349,7.468375 1.73403,10.030838 0.37055,2.562457 0.85113,6.670117 1.06796,9.128127 0.21683,2.458 0.39483,6.91061 0.39556,9.89468 7.7e-4,3.13141 -0.16537,6.85061 -0.39289,8.79571 -0.21683,1.85357 -0.63424,4.47221 -0.92758,5.81921 -0.29335,1.347 -0.83517,3.35701 -1.20405,4.46671 -0.36888,1.10969 -1.20105,3.07422 -1.84926,4.36562 -0.64822,1.2914 -1.06513,2.38601 -0.92647,2.43247 0.13865,0.0464 1.29893,0.73933 2.5784,1.53972 1.27947,0.8004 3.45364,2.31021 4.8315,3.35513 1.37786,1.04492 3.5828,2.97142 4.89987,4.2811 1.31708,1.30969 3.18298,3.43534 4.14645,4.72366 0.96348,1.28833 2.34918,3.49098 3.07933,4.89479 0.73016,1.40381 1.69135,3.59122 2.13599,4.86091 0.44463,1.26968 1.01284,3.35328 1.26267,4.63021 0.29708,1.51841 0.45424,3.60328 0.45424,6.02585 0,2.40828 -0.15731,4.50782 -0.44965,6.00134 -0.2473,1.26344 -0.75185,3.22295 -1.12121,4.35445 -0.36936,1.13151 -1.15391,3.01481 -1.74344,4.18512 -0.58953,1.17031 -1.62445,2.95666 -2.29983,3.96966 -0.67537,1.01299 -2.35904,3.02365 -3.74149,4.46811 -1.38245,1.44446 -3.4707,3.37412 -4.64055,4.28814 -1.16986,0.91401 -3.08352,2.25508 -4.25258,2.98015 -1.16905,0.72507 -3.22325,1.86961 -4.56487,2.54341 -1.34162,0.6738 -3.05937,1.47402 -3.81722,1.77827 -0.75785,0.30425 -2.54779,0.95537 -3.97765,1.44695 -2.59973,0.89378 -2.59973,0.89378 -81.75625,0.87241 -76.737422,-0.0207 -79.244427,-0.0368 -82.033251,-0.52772 z m 161.911131,-8.01519 c 1.00776,-0.34473 2.84864,-1.08887 4.09085,-1.65365 1.24222,-0.56478 3.27238,-1.59696 4.51149,-2.29375 1.2391,-0.69679 3.26981,-2.03009 4.5127,-2.96289 1.24288,-0.9328 3.22075,-2.71118 4.39525,-3.95197 1.17451,-1.24079 2.69821,-3.15885 3.38601,-4.26237 0.68779,-1.10352 1.54976,-2.74363 1.91548,-3.64469 0.36572,-0.90105 0.88589,-2.47172 1.15595,-3.49036 0.27005,-1.01865 0.56358,-3.16177 0.65229,-4.7625 0.11802,-2.12947 0.0452,-3.57397 -0.27124,-5.3833 -0.2379,-1.36008 -0.82712,-3.52334 -1.30937,-4.80726 -0.48226,-1.28391 -1.52209,-3.37123 -2.31073,-4.6385 -0.83342,-1.3392 -2.58627,-3.51353 -4.18567,-5.1921 -1.51348,-1.58839 -3.8352,-3.70075 -5.15938,-4.69413 -1.32418,-0.99337 -3.24104,-2.31538 -4.25968,-2.93778 -1.01865,-0.6224 -3.25481,-1.82243 -4.96925,-2.66673 -1.71444,-0.8443 -4.13647,-1.86704 -5.38229,-2.27276 -2.26512,-0.73766 -2.26512,-0.73766 -2.10996,-1.66735 0.0853,-0.51132 0.2857,-1.98767 0.44526,-3.28077 0.21041,-1.70517 0.21042,-3.1672 6e-5,-5.32155 -0.15952,-1.63375 -0.52033,-3.87086 -0.80179,-4.97136 -0.28146,-1.10051 -0.88919,-2.90757 -1.35051,-4.01571 -0.46132,-1.10814 -1.40376,-2.87319 -2.0943,-3.92234 -0.69055,-1.04914 -1.75584,-2.46936 -2.36732,-3.15604 -0.61148,-0.68668 -2.07416,-1.97368 -3.2504,-2.86 -1.17624,-0.88632 -3.04463,-2.06564 -4.15198,-2.62071 -1.10734,-0.55506 -2.85154,-1.31031 -3.87598,-1.67831 -1.02444,-0.36801 -3.22709,-0.97258 -4.89479,-1.34349 -1.66769,-0.37091 -4.34186,-0.81443 -5.94259,-0.98559 -1.64345,-0.17573 -4.29255,-0.24469 -6.08541,-0.1584 -1.74625,0.084 -4.16486,0.34341 -5.37468,0.57637 -1.20982,0.23295 -3.23389,0.78467 -4.49792,1.22604 -1.26403,0.44137 -3.07214,1.22045 -4.01803,1.73128 -0.94588,0.51084 -2.535,1.54267 -3.53137,2.29297 -1.02458,0.77155 -2.5538,2.31245 -3.52009,3.54699 -0.93968,1.20055 -1.75774,2.18282 -1.81791,2.18282 -0.0602,0 -1.57175,-1.4642 -3.35907,-3.25377 -1.78733,-1.78957 -4.6189,-4.27559 -6.29239,-5.52449 -1.67349,-1.24891 -4.17381,-2.95903 -5.55625,-3.80027 -1.38245,-0.84124 -3.82323,-2.15417 -5.42396,-2.91763 -1.60073,-0.76345 -4.16058,-1.80462 -5.68854,-2.3137 -1.52797,-0.50909 -4.02829,-1.20475 -5.55625,-1.5459 -2.42026,-0.54038 -3.47683,-0.62017 -8.20209,-0.61939 -4.59409,7.6e-4 -5.87959,0.0931 -8.40195,0.60358 -1.637894,0.33147 -4.071262,0.95994 -5.407482,1.3966 -1.336221,0.43665 -3.345841,1.25257 -4.465823,1.81313 -1.119982,0.56057 -2.79427,1.52796 -3.720641,2.14975 -0.926371,0.6218 -2.57728,2.04471 -3.668686,3.16204 -1.091406,1.11732 -2.552498,2.98087 -3.246871,4.14121 -0.694373,1.16035 -1.663314,3.23382 -2.153202,4.60772 -0.489889,1.37389 -1.082625,3.6203 -1.317192,4.99201 -0.234567,1.37171 -0.424105,3.81249 -0.421196,5.42396 0.0029,1.61147 0.164584,3.90955 0.359278,5.10685 0.319298,1.96359 0.312298,2.1888 -0.07144,2.29816 -0.233983,0.0667 -1.735111,0.37887 -3.33584,0.69375 -1.600729,0.31489 -4.696354,1.08903 -6.879167,1.72033 -2.182812,0.6313 -5.576094,1.75679 -7.540625,2.50109 -1.964531,0.74429 -5.23875,2.15912 -7.276042,3.14406 -2.037292,0.98494 -4.809179,2.46499 -6.15975,3.28899 -1.35057,0.82401 -3.360888,2.1677 -4.467372,2.98599 -1.106485,0.81828 -3.026677,2.45735 -4.267093,3.64238 -1.240416,1.18502 -2.969264,3.10709 -3.841884,4.27126 -0.87262,1.16416 -2.100762,3.19538 -2.729205,4.5138 -0.628443,1.31843 -1.377578,3.40202 -1.664746,4.63021 -0.287167,1.22819 -0.647493,3.38924 -0.800724,4.80233 -0.153231,1.41309 -0.278602,3.55934 -0.278602,4.76944 0,1.2101 0.121659,3.17043 0.270353,4.35629 0.148694,1.18586 0.507091,3.08774 0.796437,4.22639 0.289346,1.13866 1.005829,3.07379 1.592184,4.3003 0.586355,1.2265 1.585971,2.95854 2.22137,3.84897 0.635399,0.89043 1.962827,2.3744 2.949841,3.2977 0.987014,0.9233 2.614343,2.20904 3.616286,2.85719 1.001944,0.64816 2.583922,1.52407 3.515507,1.94647 0.931585,0.4224 2.619446,1.07892 3.750803,1.45893 1.131356,0.38001 3.128574,0.9059 4.438262,1.16863 2.262152,0.45381 6.305848,0.47882 80.850022,0.5 78.46876,0.0223 78.46876,0.0223 80.30104,-0.60447 z m 4.2889,-71.93521 c 0.44201,-1.34606 0.99133,-3.39989 1.22072,-4.56406 0.22939,-1.16416 0.53665,-3.18823 0.6828,-4.49791 0.14615,-1.30969 0.2667,-4.66672 0.2679,-7.46007 10e-4,-2.79335 -0.12469,-6.60335 -0.27974,-8.46667 -0.15506,-1.86332 -0.57635,-5.59051 -0.93622,-8.28264 -0.35987,-2.692136 -1.24128,-7.811824 -1.95869,-11.377085 -0.71741,-3.56526 -1.81919,-8.506354 -2.44839,-10.980208 -0.62921,-2.473855 -1.22085,-4.497917 -1.31477,-4.497917 -0.0939,0 -5.49084,5.476875 -11.99316,12.170834 -6.50233,6.693958 -12.88894,13.254013 -14.19248,14.577896 -2.37006,2.40707 -2.37006,2.40707 -0.0342,2.86281 1.28472,0.25066 3.76461,0.92928 5.51086,1.50806 1.74625,0.57878 4.2138,1.57133 5.48344,2.20568 1.26965,0.63434 3.17465,1.7279 4.23334,2.43012 1.05869,0.70223 2.92603,2.23141 4.14965,3.39819 1.22361,1.16678 2.9326,3.07111 3.79774,4.23184 0.86515,1.16074 2.10394,3.16763 2.75289,4.45975 0.64894,1.29212 1.58188,3.55711 2.07321,5.03332 0.49132,1.4762 1.07873,3.75556 1.30536,5.06525 0.22663,1.30969 0.41244,2.88727 0.4129,3.50573 4.7e-4,0.61846 0.10487,1.12448 0.23202,1.12448 0.12714,0 0.59281,-1.10133 1.03482,-2.4474 z M 70.993095,116.59925 c 0.329593,-0.9095 1.108419,-2.66568 1.730723,-3.9026 0.622304,-1.23693 1.72027,-3.0824 2.439925,-4.10105 0.719654,-1.01864 2.178609,-2.73055 3.242122,-3.80423 1.063513,-1.07368 2.887118,-2.65055 4.052455,-3.50417 1.165337,-0.85361 3.259526,-2.136899 4.653752,-2.851755 1.394227,-0.714857 3.725583,-1.711912 5.180791,-2.215679 1.455209,-0.503766 3.740607,-1.171731 5.078664,-1.484367 1.338057,-0.312635 3.719303,-0.749037 5.291663,-0.969781 1.57236,-0.220744 4.52572,-0.412904 6.56301,-0.427021 3.70416,-0.02567 3.70416,-0.02567 1.45521,-2.135423 -1.23693,-1.160366 -3.46719,-3.020045 -4.95612,-4.132622 -1.48894,-1.112576 -4.22738,-2.952009 -6.085421,-4.087629 -1.858041,-1.135619 -5.045131,-2.881722 -7.082422,-3.880228 -2.037292,-0.998505 -5.035679,-2.360037 -6.663083,-3.025627 -1.627404,-0.665589 -4.689015,-1.799884 -6.803582,-2.520655 -2.114566,-0.720771 -5.558468,-1.790558 -7.653116,-2.377305 -2.094647,-0.586746 -5.641004,-1.476066 -7.880793,-1.976266 -2.23979,-0.500199 -5.346827,-1.123848 -6.904528,-1.385885 -1.557701,-0.262038 -2.890473,-0.418142 -2.961717,-0.346898 -0.07124,0.07124 3.64402,11.524882 8.256142,25.452529 4.612122,13.927652 8.399488,25.324642 8.41637,25.326652 0.01688,0.002 0.300361,-0.74048 0.629955,-1.64999 z"
         id="path3" /><path
         style="fill:#121246;fill-opacity:1"
         d="m 137.49692,187.8573 c -0.45839,-0.27951 -1.18578,-1.0232 -1.61643,-1.65265 -0.43065,-0.62945 -1.00169,-1.56118 -1.26898,-2.0705 -0.26728,-0.50932 -1.09804,-2.41432 -1.84613,-4.23333 -0.83542,-2.03138 -1.5044,-3.3073 -1.73404,-3.3073 -0.28633,0 -0.39323,0.52669 -0.45647,2.24896 -0.0826,2.24896 -0.0826,2.24896 -1.98437,4.87285 -1.04599,1.44313 -2.33423,2.97063 -2.86275,3.39442 -0.56774,0.45524 -1.41312,0.83119 -2.06595,0.91875 -1.06278,0.14255 -1.15747,0.0935 -2.47863,-1.28423 -0.7555,-0.78784 -1.87126,-2.38203 -2.47946,-3.54264 -0.6082,-1.1606 -1.41583,-3.03595 -1.79474,-4.16743 -0.3789,-1.13148 -0.75397,-2.97695 -0.83348,-4.10104 -0.12691,-1.79405 -0.0692,-2.18768 0.47182,-3.22121 0.33901,-0.64757 0.74812,-1.21734 0.90913,-1.26616 0.17756,-0.0538 0.35159,0.48137 0.44229,1.36016 0.0822,0.7969 0.56013,2.43824 1.06197,3.64741 0.50183,1.20917 1.41116,3.38912 2.02073,4.84433 0.60956,1.45521 1.28261,2.91372 1.49565,3.24115 0.226,0.34733 0.65475,0.59531 1.02925,0.59531 0.416,0 0.87761,-0.30904 1.3117,-0.87816 0.3684,-0.48299 1.02578,-1.66325 1.46086,-2.62279 0.43508,-0.95954 1.28037,-3.03491 1.87844,-4.61194 0.59806,-1.57702 1.43502,-3.59872 1.8599,-4.49266 0.42489,-0.89394 0.95088,-1.69378 1.16887,-1.77743 0.23681,-0.0909 0.54959,0.0841 0.77709,0.43471 0.20942,0.32275 1.05543,2.43228 1.88002,4.68785 0.8246,2.25557 1.99295,5.0402 2.59634,6.18806 0.60338,1.14786 1.52987,2.57654 2.05886,3.17484 0.9618,1.08782 0.9618,1.08782 1.25805,0.0297 0.16294,-0.58199 0.71592,-3.05134 1.22885,-5.48744 0.51293,-2.43609 1.16522,-5.17453 1.44953,-6.08541 0.28431,-0.91089 0.75528,-2.04311 1.04661,-2.51605 0.30932,-0.50216 0.74757,-0.8599 1.05343,-0.8599 0.28806,0 0.64699,0.2303 0.79763,0.51177 0.15065,0.28148 0.27282,1.26374 0.2715,2.18282 -10e-4,0.91907 -0.2887,2.92119 -0.63863,4.44916 -0.34993,1.52797 -0.95663,3.79016 -1.34824,5.02709 -0.3916,1.23692 -1.10422,3.10288 -1.58358,4.14656 -0.63647,1.38571 -1.08937,2.01023 -1.67894,2.3151 -0.44404,0.22963 -1.08115,0.41706 -1.4158,0.41651 -0.33465,-5.4e-4 -0.9835,-0.22968 -1.4419,-0.50919 z m 43.40574,-34.67905 c -1.17825,-0.2663 -3.20232,-0.83976 -4.49791,-1.27434 -1.2956,-0.43457 -3.78438,-1.40358 -5.53063,-2.15334 -1.74625,-0.74975 -4.04715,-1.9067 -5.11312,-2.571 -1.06596,-0.66429 -2.06318,-1.48231 -2.21605,-1.81782 -0.15287,-0.33551 -0.19893,-1.03121 -0.10236,-1.54599 0.11287,-0.60164 0.66106,-1.46715 1.53469,-2.42304 0.7475,-0.81788 2.04453,-1.95253 2.88228,-2.52144 0.83776,-0.56891 2.72511,-1.63514 4.19413,-2.36941 1.46902,-0.73427 3.88817,-1.73929 5.37589,-2.23337 1.48772,-0.49409 3.62267,-1.08504 4.74432,-1.31323 1.12165,-0.22818 2.76258,-0.41487 3.64652,-0.41487 0.88393,0 2.01046,0.16851 2.5034,0.37447 0.49293,0.20596 1.02489,0.61486 1.18213,0.90865 0.15723,0.29379 0.28588,0.72829 0.28588,0.96554 0,0.23725 -0.24885,1.00983 -0.553,1.71684 -0.553,1.28548 -0.553,1.28548 -2.57969,1.45865 -1.11468,0.0952 -3.09825,0.33855 -4.40794,0.54068 -1.30969,0.20213 -3.15516,0.6169 -4.10104,0.92172 -0.94589,0.30482 -2.94471,1.14655 -4.44182,1.87052 -1.87479,0.9066 -2.81293,1.51582 -3.0141,1.95732 -0.23153,0.50817 -0.20216,0.77822 0.14174,1.30308 0.23859,0.36413 1.29727,1.07286 2.35263,1.57496 1.05536,0.50209 3.34759,1.41258 5.09384,2.02331 1.74625,0.61074 3.85885,1.38651 4.69466,1.72395 0.83581,0.33744 1.8776,0.86841 2.3151,1.17993 0.4375,0.31153 0.79545,0.79818 0.79545,1.08145 0,0.29713 -0.36381,0.73686 -0.8599,1.03933 -0.47294,0.28836 -1.15755,0.51469 -1.52135,0.50297 -0.3638,-0.0117 -1.62549,-0.23921 -2.80375,-0.50552 z M 80.786443,150.3019 c -0.269539,-1.07044 -0.249624,-1.24525 0.177444,-1.55761 0.264583,-0.19352 1.850278,-0.76831 3.523768,-1.2773 1.673489,-0.509 3.995208,-1.32228 5.159375,-1.80728 1.164167,-0.48501 2.890573,-1.12732 3.836458,-1.42736 0.945886,-0.30003 2.434167,-0.68512 3.307292,-0.85574 0.873125,-0.17063 1.754674,-0.40162 1.958999,-0.51332 0.290735,-0.15895 0.231285,-0.29497 -0.273465,-0.6257 -0.354729,-0.23242 -2.545966,-1.14478 -4.869415,-2.02746 -2.323449,-0.88267 -5.296015,-2.13256 -6.605703,-2.77751 -1.309687,-0.64496 -2.840592,-1.61891 -3.40201,-2.16432 -0.561418,-0.54542 -1.130538,-1.28041 -1.264712,-1.63332 -0.156246,-0.41096 -0.141373,-0.95246 0.04137,-1.50617 0.156927,-0.4755 0.468451,-0.93481 0.692274,-1.0207 0.223824,-0.0859 1.176479,0.0223 2.11701,0.24043 0.940532,0.21812 2.745942,0.82227 4.012022,1.34256 1.26608,0.52028 3.671182,1.66339 5.344672,2.54025 1.673489,0.87685 4.352396,2.46177 5.953128,3.52203 1.60073,1.06027 3.53549,2.58928 4.29948,3.3978 0.76398,0.80852 1.38906,1.70854 1.38906,2.00004 0,0.2915 -0.26789,0.71859 -0.59531,0.94909 -0.32743,0.23049 -1.69001,0.77045 -3.02798,1.19989 -1.33796,0.42945 -5.326553,1.50851 -8.863538,2.39792 -3.536985,0.88941 -7.82042,1.8854 -9.518743,2.21332 -3.087861,0.59622 -3.087861,0.59622 -3.391476,-0.60954 z"
         id="path2"
         sodipodi:nodetypes="ssssssssssssssscssssssssssssssssssscssssssssssssssssssssssssssssssssssssssssssssssssssssssssssssss" /></g></g></svg>
